<svg width="128" height="128" viewBox="0 0 128 128" fill="none" xmlns="http://www.w3.org/2000/svg">
<circle cx="64" cy="64" r="60" fill="#362E1A" stroke="#F9DF9F" stroke-width="8"/>
<path fill-rule="evenodd" clip-rule="evenodd" d="M85.8053 35.377H37.5226C35.5244 35.377 34.2251 37.4802 35.1195 39.2671L41.3346 51.6836C41.79 52.5935 42.7202 53.1681 43.7376 53.1681H85.8053V35.377ZM85.8053 56.8745H50.1391C48.1409 56.8745 46.8416 58.9778 47.7361 60.7646L53.9511 73.1812C54.4066 74.091 55.3367 74.6656 56.3542 74.6656H85.8053V56.8745ZM85.8053 78.372H62.7536C60.7554 78.372 59.4561 80.4753 60.3505 82.2622L66.5656 94.6787C67.021 95.5885 67.9512 96.1631 68.9687 96.1631H85.8053V78.372Z" fill="#F9DF9F"/>
</svg>
